@startuml

interface RemotingClient{

    RemotingCommand invokeSync(final String addr, final RemotingCommand request, final long timeoutMillis)
    void invokeAsync(final String addr, final RemotingCommand request, final long timeoutMillis, final InvokeCallback invokeCallback)
    void invokeOneway(final String addr, final RemotingCommand request, final long timeoutMillis)

}
note top
     invokeSync 同步调用方法
     invokeAsync 异步调用方法
     invokeOneway 单向发送方法，不用返回值
end note
abstract class NettyRemotingAbstract{
  ConcurrentMap<Integer /* opaque */, ResponseFuture> responseTable
  HashMap<Integer/* request code */, Pair<NettyRequestProcessor, ExecutorService>> processorTable
  Pair<NettyRequestProcessor, ExecutorService> defaultRequestProcessor
  List<RPCHook> rpcHooks
}
note top
    responseTable 存储待处理的ResponseFuture
end note

RequestTask--|>RemotingCommand
ResponseFuture--|>RemotingCommand
class RequestTask{
     - final Runnable runnable
    - final long createTimestamp
    - final Channel channel
    - final RemotingCommand request
    - boolean stopRun
}
note bottom
NettyRemotingAbstract processRequestCommand的时候，将请求数据发到borker
end note
NettyRemotingAbstract..>RequestTask

class ResponseFuture{
    - final int opaque
    - final Channel processChannel
    - final long timeoutMillis
    - final InvokeCallback invokeCallback
    - final long beginTimestamp
    - final CountDownLatch countDownLatch

    - final SemaphoreReleaseOnlyOnce once

    - final AtomicBoolean executeCallbackOnlyOnce
    - volatile RemotingCommand responseCommand
    - volatile boolean sendRequestOK
    - volatile Throwable cause
}
note bottom
    opaque 是1个编号，用于从远端取回的数据和本地的匹配
    invokeCallback 是需要执行的回调方法
    processChannel 是netty实际的channel，在关闭的时候会用到
end note
NettyRemotingAbstract-->ResponseFuture

class RemotingCommand{
    - static AtomicInteger requestId = new AtomicInteger(0)
    - int code
    - int opaque  = requestId.getAndIncrement()
    - byte[] body
}
note bottom
    opaque是1个标记，回调时可以通过这个字段查询
    赋值规则是逐次加1，保证不重复
    body 是要传递的正文
end note
RemotingClient-->RemotingCommand
class Channel{
 ChannelFuture writeAndFlush(Object var1, ChannelPromise var2)
}
note bottom:netty的类，writeAndFlush方法直接发送请求
class NettyRemotingClient{
    NettyClientConfig nettyClientConfig
    Bootstrap bootstrap
    EventLoopGroup eventLoopGroupWorker
    Lock lockChannelTables
    ConcurrentMap<String /* addr */, ChannelWrapper> channelTables
    Timer timer
    AtomicReference<List<String>> namesrvAddrList
    AtomicReference<String> namesrvAddrChoosed
    AtomicInteger namesrvIndex
    Lock lockNamesrvChannel
    ExecutorService publicExecutor
    ExecutorService callbackExecutor
    ChannelEventListener channelEventListener
    DefaultEventExecutorGroup defaultEventExecutorGroup
}

NettyRemotingClient ..|>RemotingClient
NettyRemotingClient --|>NettyRemotingAbstract
NettyRemotingAbstract-->Channel
@enduml